# Blender 4.1.1
# www.blender.org
mtllib 002.mtl
o Plane.002
v -0.652449 0.499088 0.425160
v -0.448106 -0.028424 0.292371
v -0.588040 0.060938 -0.571004
v -0.670834 -0.179704 0.320946
vn 0.9174 0.3828 -0.1091
vn 0.9959 -0.0395 0.0818
vn 0.5382 -0.8250 -0.1726
vn 0.2278 -0.1538 0.9615
vt 0.210027 0.676675
vt 0.105558 0.914593
vt 0.105558 0.610377
vt 0.221857 0.453057
vt 0.461163 0.586780
vt 0.156948 0.586780
vt 0.568548 0.858914
vt 0.492730 0.884511
vt 0.492730 0.610377
vt 0.811329 0.696499
vt 0.915607 0.763096
vt 0.766963 0.763096
s 0
usemtl 
f 2/1/1 3/2/1 1/3/1
f 4/4/2 3/5/2 1/6/2
f 2/7/3 4/8/3 3/9/3
f 2/10/4 1/11/4 4/12/4
