# Blender 4.1.1
# www.blender.org
mtllib 005.mtl
o Plane.005
v 0.670467 0.026943 0.333235
v 1.307567 -0.101342 1.352892
v 0.621474 0.027520 -0.233129
v 0.667096 -0.059410 0.279818
vn 0.2258 0.9740 -0.0185
vn 0.9962 0.0144 -0.0862
vn 0.2445 -0.9522 -0.1831
vn -0.8318 -0.2681 0.4860
vt 0.766963 0.164750
vt 0.964923 0.000363
vt 0.999637 0.164750
vt 0.782752 0.670233
vt 0.934976 0.695773
vt 0.766963 0.695773
vt 0.984278 0.488164
vt 0.766963 0.488164
vt 0.778096 0.334214
vt 0.671436 0.843052
vt 0.671436 0.610377
vt 0.696329 0.627167
s 0
usemtl 
f 2/1/1 3/2/1 1/3/1
f 4/4/2 3/5/2 1/6/2
f 2/7/3 4/8/3 3/9/3
f 2/10/4 1/11/4 4/12/4
