# Blender 4.1.1
# www.blender.org
mtllib finalAttempt.mtl
o Plane.001
v 0.670467 0.026943 0.333235
v 1.307567 -0.101342 1.352892
v 0.621474 0.027520 -0.233129
v 0.667096 -0.059410 0.279818
vn 0.2258 0.9740 -0.0185
vn 0.9962 0.0144 -0.0862
vn 0.2445 -0.9522 -0.1831
vn -0.8318 -0.2681 0.4860
vt 0.766963 0.164750
vt 0.964923 0.000363
vt 0.999637 0.164750
vt 0.782752 0.670233
vt 0.934976 0.695773
vt 0.766963 0.695773
vt 0.984278 0.488164
vt 0.766963 0.488164
vt 0.778096 0.334214
vt 0.671436 0.843052
vt 0.671436 0.610377
vt 0.696329 0.627167
s 0
usemtl 
f 2/1/1 3/2/1 1/3/1
f 4/4/2 3/5/2 1/6/2
f 2/7/3 4/8/3 3/9/3
f 2/10/4 1/11/4 4/12/4
o Plane.002
v -0.670467 0.026943 0.333235
v -1.307567 -0.101342 1.352892
v -0.621474 0.027520 -0.233129
v -0.667096 -0.059410 0.279818
vn 0.2258 -0.9740 0.0185
vn 0.9962 -0.0144 0.0862
vn 0.2445 0.9522 0.1831
vn -0.8318 0.2681 -0.4860
vt 0.994617 0.213550
vt 0.766963 0.333488
vt 0.766963 0.165476
vt 0.782752 0.643967
vt 0.934976 0.669507
vt 0.766963 0.669507
vt 0.766963 0.504564
vt 0.983712 0.488890
vt 0.983712 0.643241
vt 0.645817 0.843052
vt 0.645817 0.610377
vt 0.670710 0.627167
s 0
usemtl 
f 6/13/5 7/14/5 5/15/5
f 8/16/6 7/17/6 5/18/6
f 6/19/7 8/20/7 7/21/7
f 6/22/8 5/23/8 8/24/8
o Plane.003
v -0.652449 0.499088 0.425160
v -0.448106 -0.028424 0.292371
v -0.588040 0.060938 -0.571004
v -0.670834 -0.179704 0.320946
vn 0.9174 0.3828 -0.1091
vn 0.9959 -0.0395 0.0818
vn 0.5382 -0.8250 -0.1726
vn 0.2278 -0.1538 0.9615
vt 0.210027 0.676675
vt 0.105558 0.914593
vt 0.105558 0.610377
vt 0.221857 0.453057
vt 0.461163 0.586780
vt 0.156948 0.586780
vt 0.568548 0.858914
vt 0.492730 0.884511
vt 0.492730 0.610377
vt 0.811329 0.696499
vt 0.915607 0.763096
vt 0.766963 0.763096
s 0
usemtl 
f 10/25/9 11/26/9 9/27/9
f 12/28/10 11/29/10 9/30/10
f 10/31/11 12/32/11 11/33/11
f 10/34/12 9/35/12 12/36/12
o Plane.004
v 0.652449 0.500304 0.425160
v 0.448106 -0.027208 0.292371
v 0.588040 0.062155 -0.571004
v 0.670834 -0.178488 0.320946
vn 0.9174 -0.3828 0.1091
vn 0.9959 0.0395 -0.0818
vn 0.5382 0.8250 0.1726
vn 0.2278 0.1538 -0.9615
vt 0.104832 0.676675
vt 0.000363 0.914593
vt 0.000363 0.610378
vt 0.492004 0.610377
vt 0.476204 0.884055
vt 0.343360 0.610377
vt 0.645091 0.858914
vt 0.569273 0.884511
vt 0.569273 0.610377
vt 0.811329 0.763822
vt 0.915607 0.830419
vt 0.766963 0.830419
s 0
usemtl 
f 14/37/13 15/38/13 13/39/13
f 16/40/14 15/41/14 13/42/14
f 14/43/15 16/44/15 15/45/15
f 14/46/16 13/47/16 16/48/16
o Plane.005
v -0.000000 0.005090 -1.943705
v -0.500000 0.011180 0.056295
v -0.000000 0.305090 -0.143705
v 0.500000 0.010010 0.056295
v -0.000000 0.105090 0.051151
vn 0.0012 1.0000 -0.0028
vn -0.5424 0.8287 -0.1381
vn 0.5437 0.8278 -0.1380
vn -0.1228 0.6926 0.7108
vn -0.0008 -0.6978 -0.7163
vn -0.0001 -0.0544 -0.9985
vt 0.748045 0.304555
vt 0.156948 0.452331
vt 0.156948 0.156783
vt 0.766237 0.156058
vt 0.156948 0.156058
vt 0.249876 0.000363
vt 0.000363 0.000363
vt 0.156222 0.516675
vt 0.000363 0.609652
vt 0.697055 0.791696
vt 0.697055 0.610377
vt 0.764825 0.744605
vt 0.210753 0.775439
vt 0.287660 0.610377
vt 0.342635 0.750402
vt 0.342635 0.900768
vt 0.697055 0.792422
s 0
usemtl 
f 17/49/17 18/50/17 20/51/17
f 17/52/18 18/53/18 19/54/18
f 17/55/19 19/56/19 20/57/19
f 19/58/20 18/59/20 21/60/20
f 19/61/21 20/62/21 21/63/21 18/64/21
f 21/65/22 20/65/22 18/65/22
